<svg width="1056" height="1056" viewBox="0 0 1056 1056" fill="none" xmlns="http://www.w3.org/2000/svg">
<mask id="mask0_2720_634" style="mask-type:alpha" maskUnits="userSpaceOnUse" x="0" y="0" width="1056" height="1056">
<path d="M0 250C0 111.929 111.929 0 250 0H806C944.071 0 1056 111.929 1056 250V806C1056 944.071 944.071 1056 806 1056H250C111.929 1056 0 944.071 0 806V250Z" fill="#BBF3FD"/>
</mask>
<g mask="url(#mask0_2720_634)">
<rect x="-27" y="207" width="1110" height="849" rx="105.678" fill="#BBF3FD"/>
<ellipse cx="528.5" cy="-296.5" rx="1047.5" ry="718.5" transform="rotate(180 528.5 -296.5)" fill="#3ECCFF"/>
<path d="M673.84 114C655.84 114 636.658 127.969 626.845 158.394V132.29C626.845 122.207 618.648 114.01 608.565 114.01C598.482 114.01 590.285 122.207 590.285 132.29V289.721C590.285 299.804 598.482 308.001 608.565 308.001C618.648 308.001 626.845 299.804 626.845 289.721V215.773C626.845 180.208 646.928 159.109 677.767 152.197C687.622 149.99 693.747 142.549 693.747 132.777C693.747 121.72 685.56 114 673.84 114Z" fill="#000856"/>
<path d="M790.005 114C736.523 114 693.01 157.513 693.01 210.995C693.01 264.477 736.523 307.991 790.005 307.991C843.487 307.991 887 264.477 887 210.995C887 157.513 843.487 114 790.005 114ZM790.005 271.452C756.668 271.452 729.559 244.332 729.559 211.006C729.559 177.679 756.679 150.56 790.005 150.56C823.332 150.56 850.451 177.679 850.451 211.006C850.451 244.332 823.332 271.452 790.005 271.452Z" fill="#000856"/>
<path d="M789.99 186.836C776.663 186.836 765.834 197.675 765.834 210.992C765.834 224.308 776.673 235.147 789.99 235.147C803.306 235.147 814.145 224.308 814.145 210.992C814.145 197.675 803.306 186.836 789.99 186.836Z" fill="#000856"/>
<path d="M465.242 114C411.739 114 368.205 157.513 368.205 210.995C368.205 264.477 410.454 307.991 468.879 307.991C497.397 307.991 520.942 299.317 540.859 281.483C543.014 279.327 546.672 274.664 546.672 268.011C546.672 257.928 539.17 250.249 529.221 250.249C524.092 250.249 521.17 251.762 517.926 254.343C503.387 265.876 487.75 271.949 469.646 271.949C438.775 271.949 413.542 253.783 406.641 226.405H540.703C553.066 226.353 562.03 216.394 562.03 202.674C562.03 169.503 529.501 114 465.252 114L465.242 114ZM406.589 195.534C413.076 168.757 436.247 149.658 465.252 149.658C494.258 149.658 517.211 166.736 523.854 195.534H406.589Z" fill="#000856"/>
<path d="M362.991 132.052C362.991 122.062 354.887 114 344.939 114C340.12 114 335.581 115.876 332.172 119.285L265.995 185.462L199.819 119.285C196.409 115.876 191.881 114 187.052 114C177.104 114 169 122.062 169 132.052C169 136.871 170.876 141.409 174.285 144.819L240.462 210.995L174.285 277.172C170.876 280.581 169 285.12 169 289.939C169 299.928 177.073 307.991 187.052 307.991C191.871 307.991 196.409 306.115 199.819 302.706L265.995 236.529L332.172 302.706C335.581 306.115 340.12 307.991 344.939 307.991C354.918 307.991 362.991 299.918 362.991 289.939C362.991 285.12 361.115 280.581 357.706 277.172L291.529 210.995L357.706 144.819C361.115 141.409 362.991 136.871 362.991 132.052Z" fill="#000856"/>
<path d="M137.599 553.76H173.779V644.66H200.599V674H137.599V553.76ZM262.661 613.7V614.24C272.201 618.38 279.581 627.92 279.581 641.78C279.581 662.84 263.201 675.44 240.701 675.44C218.921 675.44 203.261 661.4 202.901 642.14L233.861 632.6C233.861 639.98 235.481 645.38 239.621 645.38C243.041 645.38 244.661 642.14 244.661 636.2C244.661 630.08 242.681 627.56 236.921 627.56H228.281V600.02H236.921C242.681 600.02 244.481 598.4 244.481 591.02C244.481 587.06 243.581 582.92 239.801 582.92C236.021 582.92 234.401 588.14 234.761 594.62L204.881 585.8C206.861 565.82 221.621 552.32 242.681 552.32C263.561 552.32 278.501 564.02 278.501 585.62C278.501 600.92 271.301 610.82 262.661 613.7ZM315.13 613.7C315.13 573.38 329.53 552.32 354.55 552.32C375.43 552.32 386.23 567.26 388.03 589.04L364.45 595.16C364.09 584.36 361.93 574.64 354.19 574.64C345.73 574.64 341.77 587.6 341.77 613.7C341.77 639.98 345.91 653.12 354.37 653.12C361.93 653.12 364.09 643.04 364.63 632.24L388.21 638.36C386.41 660.14 375.61 675.44 354.55 675.44C329.53 675.44 315.13 654.2 315.13 613.7ZM456.147 652.58V674L397.467 674L397.467 553.76L456.147 553.76V575.18L422.847 575.18V602.9L450.927 602.9L450.927 623.24L422.847 623.24V652.58L456.147 652.58ZM514.579 591.56C514.579 580.58 511.699 574.64 501.079 574.64H493.339V608.48H501.259C511.699 608.48 514.579 602.54 514.579 591.56ZM544.279 674H517.279C515.479 670.94 514.399 666.62 513.499 661.04L510.979 638.9C509.719 630.98 506.479 628.1 499.999 628.1H493.339V674H467.779L467.779 553.76H504.319C529.339 553.76 541.039 566.36 541.039 588.68C541.039 605.42 531.499 615.32 521.059 617.66V618.02C528.979 619.82 534.739 625.94 536.359 636.74L539.599 660.32C540.319 665.72 541.759 670.22 544.279 674ZM595.384 674H569.464V575.18H546.784V553.76H618.064V575.18H595.384V674ZM627.389 553.76H653.129V674H627.389V553.76ZM692.324 674H666.764V553.76H723.464V575.18H692.324V605.6H719.324V626.3H692.324V674ZM733.736 553.76H759.476V674H733.736V553.76ZM831.791 652.58V674H773.111V553.76H831.791V575.18H798.491V602.9H826.571V623.24H798.491V652.58H831.791ZM843.424 674V553.76H874.564C904.084 553.76 919.024 574.46 919.024 614.06C919.024 653.48 904.084 674 874.564 674H843.424ZM868.984 575V652.76H874.384C887.344 652.76 892.024 641.24 892.024 614.06C892.024 586.7 887.344 575 874.384 575H868.984ZM223.964 864.44C203.264 864.44 189.044 850.94 188.684 828.98L210.824 822.86C210.464 835.64 215.684 843.92 223.784 843.92C230.264 843.92 234.044 839.78 234.044 832.94C234.044 812.96 190.664 809.18 190.664 774.8C190.664 755.18 204.884 741.32 225.404 741.32C246.104 741.32 257.984 753.92 258.704 774.8L236.564 779.66C236.564 769.4 232.784 761.66 225.584 761.66C219.464 761.66 215.684 765.8 215.684 772.28C215.684 790.64 259.424 795.32 259.424 830.78C259.424 851.12 244.124 864.44 223.964 864.44ZM301.735 821.06H294.175V863H268.795V742.76H301.735C326.395 742.76 339.355 755.9 339.355 781.82C339.355 807.74 326.395 821.06 301.735 821.06ZM313.615 782C313.615 768.86 309.835 763.64 300.295 763.64H294.175V800.54H300.295C309.655 800.54 313.615 795.14 313.615 782ZM407.456 841.58V863H348.776V742.76H407.456V764.18H374.156V791.9H402.236V812.24H374.156V841.58H407.456ZM414.094 802.7C414.094 762.38 428.494 741.32 453.514 741.32C474.394 741.32 485.194 756.26 486.994 778.04L463.414 784.16C463.054 773.36 460.894 763.64 453.154 763.64C444.694 763.64 440.734 776.6 440.734 802.7C440.734 828.98 444.874 842.12 453.334 842.12C460.894 842.12 463.054 832.04 463.594 821.24L487.174 827.36C485.374 849.14 474.574 864.44 453.514 864.44C428.494 864.44 414.094 843.2 414.094 802.7ZM496.432 742.76H522.172L522.172 863H496.432V742.76ZM570.367 771.38L562.627 816.56H578.827L570.907 771.38H570.367ZM586.927 863L582.247 836H559.207L554.527 863H530.227L554.887 742.76H587.287L611.947 863H586.927ZM620.006 742.76H645.746L645.746 841.58H676.886V863H620.006L620.006 742.76ZM686.803 742.76H712.543L712.543 863H686.803L686.803 742.76ZM755.878 864.44C735.178 864.44 720.958 850.94 720.598 828.98L742.738 822.86C742.378 835.64 747.598 843.92 755.698 843.92C762.178 843.92 765.958 839.78 765.958 832.94C765.958 812.96 722.578 809.18 722.578 774.8C722.578 755.18 736.798 741.32 757.318 741.32C778.018 741.32 789.898 753.92 790.618 774.8L768.478 779.66C768.478 769.4 764.698 761.66 757.498 761.66C751.378 761.66 747.598 765.8 747.598 772.28C747.598 790.64 791.338 795.32 791.338 830.78C791.338 851.12 776.038 864.44 755.878 864.44ZM843.411 863H817.491L817.491 764.18H794.811V742.76H866.091V764.18H843.411L843.411 863Z" fill="#000856"/>
</g>
</svg>
