<svg width="1056" height="1056" viewBox="0 0 1056 1056" fill="none" xmlns="http://www.w3.org/2000/svg">
<mask id="mask0_2720_541" style="mask-type:alpha" maskUnits="userSpaceOnUse" x="0" y="0" width="1056" height="1056">
<path d="M0 250C0 111.929 111.929 0 250 0H806C944.071 0 1056 111.929 1056 250V806C1056 944.071 944.071 1056 806 1056H250C111.929 1056 0 944.071 0 806V250Z" fill="#BBF3FD"/>
</mask>
<g mask="url(#mask0_2720_541)">
<rect x="-27" y="207" width="1110" height="849" rx="105.678" fill="#E1E2E5"/>
<ellipse cx="528.5" cy="-296.5" rx="1047.5" ry="718.5" transform="rotate(180 528.5 -296.5)" fill="#3ECCFF"/>
<path d="M251.432 587.5L239.192 633.58H226.412L214.352 587.5H213.632L213.992 611.08V664H190.052L190.052 543.76H218.132L232.892 595.06H233.432L248.372 543.76H275.732V664H251.612V611.08L251.972 587.5H251.432ZM291.168 543.76H316.908V664H291.168V543.76ZM370.504 600.28H405.424V664H387.964L385.444 651.58C382.204 660.04 374.644 665.44 364.384 665.44C342.424 665.44 329.284 642.76 329.284 605.32C329.284 564.82 344.584 542.32 370.144 542.32C391.564 542.32 402.724 557.26 404.524 579.04L380.224 585.16C379.684 574.36 377.524 564.64 369.604 564.64C360.604 564.64 355.924 578.86 355.924 605.32C355.924 629.8 359.884 643.48 369.784 643.48C376.984 643.48 381.124 637.36 381.124 624.58V619.36H370.504V600.28ZM466.549 581.56C466.549 570.58 463.669 564.64 453.049 564.64H445.309V598.48H453.229C463.669 598.48 466.549 592.54 466.549 581.56ZM496.249 664H469.249C467.449 660.94 466.369 656.62 465.469 651.04L462.949 628.9C461.689 620.98 458.449 618.1 451.969 618.1H445.309V664H419.749V543.76L456.289 543.76C481.309 543.76 493.009 556.36 493.009 578.68C493.009 595.42 483.469 605.32 473.029 607.66V608.02C480.949 609.82 486.709 615.94 488.329 626.74L491.569 650.32C492.289 655.72 493.729 660.22 496.249 664ZM540.484 572.38L532.744 617.56H548.944L541.024 572.38H540.484ZM557.044 664L552.364 637L529.324 637L524.644 664H500.344L525.004 543.76H557.404L582.064 664H557.044ZM628.473 664H602.553V565.18H579.873V543.76H651.153V565.18H628.473V664ZM662.278 543.76H688.018V664H662.278V543.76ZM740.173 542.32C765.913 542.32 780.133 563.74 780.133 603.88C780.133 644.02 765.913 665.44 740.173 665.44C714.613 665.44 700.393 644.02 700.393 603.88C700.393 563.74 714.613 542.32 740.173 542.32ZM740.173 563.92C730.633 563.92 727.033 576.34 727.033 603.88C727.033 631.42 730.633 643.84 740.173 643.84C749.713 643.84 753.313 631.42 753.313 603.88C753.313 576.34 749.713 563.92 740.173 563.92ZM842.48 609.1V543.76H866.06V664H843.56L816.56 595.96H816.02V664H792.44V543.76H816.74L841.76 609.1H842.48ZM215.864 854.44C195.164 854.44 180.944 840.94 180.584 818.98L202.724 812.86C202.364 825.64 207.584 833.92 215.684 833.92C222.164 833.92 225.944 829.78 225.944 822.94C225.944 802.96 182.564 799.18 182.564 764.8C182.564 745.18 196.784 731.32 217.304 731.32C238.004 731.32 249.884 743.92 250.604 764.8L228.464 769.66C228.464 759.4 224.684 751.66 217.484 751.66C211.364 751.66 207.584 755.8 207.584 762.28C207.584 780.64 251.324 785.32 251.324 820.78C251.324 841.12 236.024 854.44 215.864 854.44ZM295.435 811.06H287.875V853H262.495V732.76H295.435C320.095 732.76 333.055 745.9 333.055 771.82C333.055 797.74 320.095 811.06 295.435 811.06ZM307.315 772C307.315 758.86 303.535 753.64 293.995 753.64H287.875V790.54H293.995C303.355 790.54 307.315 785.14 307.315 772ZM402.956 831.58V853L344.276 853V732.76H402.956V754.18H369.656V781.9H397.736V802.24H369.656V831.58H402.956ZM411.394 792.7C411.394 752.38 425.794 731.32 450.814 731.32C471.694 731.32 482.494 746.26 484.294 768.04L460.714 774.16C460.354 763.36 458.194 753.64 450.454 753.64C441.994 753.64 438.034 766.6 438.034 792.7C438.034 818.98 442.174 832.12 450.634 832.12C458.194 832.12 460.354 822.04 460.894 811.24L484.474 817.36C482.674 839.14 471.874 854.44 450.814 854.44C425.794 854.44 411.394 833.2 411.394 792.7ZM495.532 732.76H521.272V853H495.532V732.76ZM571.267 761.38L563.527 806.56H579.727L571.807 761.38H571.267ZM587.827 853L583.147 826H560.107L555.427 853H531.127L555.787 732.76H588.187L612.847 853H587.827ZM622.706 732.76H648.446V831.58H679.586V853H622.706V732.76ZM691.303 732.76H717.043V853H691.303V732.76ZM762.178 854.44C741.478 854.44 727.258 840.94 726.898 818.98L749.038 812.86C748.678 825.64 753.898 833.92 761.998 833.92C768.478 833.92 772.258 829.78 772.258 822.94C772.258 802.96 728.878 799.18 728.878 764.8C728.878 745.18 743.098 731.32 763.618 731.32C784.318 731.32 796.198 743.92 796.918 764.8L774.778 769.66C774.778 759.4 770.998 751.66 763.798 751.66C757.678 751.66 753.898 755.8 753.898 762.28C753.898 780.64 797.638 785.32 797.638 820.78C797.638 841.12 782.338 854.44 762.178 854.44ZM851.511 853H825.591V754.18H802.911V732.76H874.191V754.18H851.511V853Z" fill="#000856"/>
<path d="M673.84 114C655.84 114 636.658 127.969 626.845 158.394V132.29C626.845 122.207 618.648 114.01 608.565 114.01C598.482 114.01 590.285 122.207 590.285 132.29V289.721C590.285 299.804 598.482 308.001 608.565 308.001C618.648 308.001 626.845 299.804 626.845 289.721V215.773C626.845 180.208 646.928 159.109 677.767 152.197C687.622 149.99 693.747 142.549 693.747 132.777C693.747 121.72 685.56 114 673.84 114Z" fill="#000856"/>
<path d="M790.005 114C736.523 114 693.01 157.513 693.01 210.995C693.01 264.477 736.523 307.991 790.005 307.991C843.487 307.991 887 264.477 887 210.995C887 157.513 843.487 114 790.005 114ZM790.005 271.452C756.668 271.452 729.559 244.332 729.559 211.006C729.559 177.679 756.679 150.56 790.005 150.56C823.332 150.56 850.451 177.679 850.451 211.006C850.451 244.332 823.332 271.452 790.005 271.452Z" fill="#000856"/>
<path d="M789.99 186.836C776.663 186.836 765.834 197.675 765.834 210.992C765.834 224.308 776.673 235.147 789.99 235.147C803.306 235.147 814.145 224.308 814.145 210.992C814.145 197.675 803.306 186.836 789.99 186.836Z" fill="#000856"/>
<path d="M465.242 114C411.739 114 368.205 157.513 368.205 210.995C368.205 264.477 410.454 307.991 468.879 307.991C497.397 307.991 520.942 299.317 540.859 281.483C543.014 279.327 546.672 274.664 546.672 268.011C546.672 257.928 539.17 250.249 529.221 250.249C524.092 250.249 521.17 251.762 517.926 254.343C503.387 265.876 487.75 271.949 469.646 271.949C438.775 271.949 413.542 253.783 406.641 226.405H540.703C553.066 226.353 562.03 216.394 562.03 202.674C562.03 169.503 529.501 114 465.252 114L465.242 114ZM406.589 195.534C413.076 168.757 436.247 149.658 465.252 149.658C494.258 149.658 517.211 166.736 523.854 195.534H406.589Z" fill="#000856"/>
<path d="M362.991 132.052C362.991 122.062 354.887 114 344.939 114C340.12 114 335.581 115.876 332.172 119.285L265.995 185.462L199.819 119.285C196.409 115.876 191.881 114 187.052 114C177.104 114 169 122.062 169 132.052C169 136.871 170.876 141.409 174.285 144.819L240.462 210.995L174.285 277.172C170.876 280.581 169 285.12 169 289.939C169 299.928 177.073 307.991 187.052 307.991C191.871 307.991 196.409 306.115 199.819 302.706L265.995 236.529L332.172 302.706C335.581 306.115 340.12 307.991 344.939 307.991C354.918 307.991 362.991 299.918 362.991 289.939C362.991 285.12 361.115 280.581 357.706 277.172L291.529 210.995L357.706 144.819C361.115 141.409 362.991 136.871 362.991 132.052Z" fill="#000856"/>
</g>
</svg>
