<svg xmlns="http://www.w3.org/2000/svg" viewBox="0 0 320 320" role="img" aria-labelledby="title desc">
  <title id="title">Xero Migration Specialist badge</title>
  <desc id="desc">Rounded Xero Migration Specialist certification badge.</desc>
  <rect width="320" height="320" rx="50" fill="#dedfe2"/>
  <path d="M0 0h320v100c-40 26-95 40-160 40S40 126 0 100V0Z" fill="#fff"/>
  <g fill="#050a5c">
    <path d="M58.5 36.5c4.5-4.5 11.7-4.5 16.2 0L92 53.8l17.3-17.3c4.5-4.5 11.7-4.5 16.2 0s4.5 11.7 0 16.2L108.2 70l17.3 17.3c4.5 4.5 4.5 11.7 0 16.2s-11.7 4.5-16.2 0L92 86.2l-17.3 17.3c-4.5 4.5-11.7 4.5-16.2 0s-4.5-11.7 0-16.2L75.8 70 58.5 52.7c-4.5-4.5-4.5-11.7 0-16.2Z"/>
    <path d="M169 87.2c-8.2 7.2-18.8 10.8-31.7 10.8-13.1 0-23.9-4.1-32.3-12.4-8.5-8.2-12.7-18.8-12.7-31.7 0-12.7 4-23.2 12-31.3C112.4 14.2 122.8 10 135.7 10c12.3 0 22.4 4 30.1 12.1 7.8 8 11.7 18.2 11.7 30.4 0 2.6-.2 5.2-.7 7.7H116c1.2 5.3 3.7 9.4 7.5 12.3 3.8 2.9 8.5 4.4 14.1 4.4 7.6 0 13.7-2.4 18.2-7.2L169 87.2Zm-52.4-44.5h38.5c-1.1-4.8-3.4-8.6-6.9-11.5-3.5-2.9-7.8-4.3-12.9-4.3-5 0-9.3 1.4-12.8 4.3-3.5 2.8-5.8 6.7-6.9 11.5Z"/>
    <path d="M190.8 95.7V12.4h22.8v11.1c4.6-8.5 12.1-12.8 22.5-12.8v24.7c-6.8-.8-12.2.3-16.2 3.5-4 3.1-6 8.3-6 15.5v41.3h-23.1Z"/>
    <path d="M279.1 98c-13.1 0-24-4.2-32.6-12.6-8.7-8.4-13-18.8-13-31.2 0-12.5 4.3-23 13-31.4 8.6-8.4 19.5-12.6 32.6-12.6s24 4.2 32.6 12.6c8.7 8.4 13 18.9 13 31.4 0 12.4-4.3 22.8-13 31.2-8.6 8.4-19.5 12.6-32.6 12.6Zm0-22.5c6.3 0 11.5-2 15.5-5.9 4-4 6-9.1 6-15.4s-2-11.5-6-15.5-9.2-6-15.5-6-11.5 2-15.5 6-6 9.2-6 15.5 2 11.4 6 15.4c4 3.9 9.2 5.9 15.5 5.9Z"/>
    <circle cx="280" cy="54" r="10" fill="#dedfe2"/>
    <circle cx="280" cy="54" r="4.5"/>
  </g>
  <text x="160" y="195" text-anchor="middle" font-family="Arial, Helvetica, sans-serif" font-size="43" font-weight="900" letter-spacing="1.5" fill="#050a5c">MIGRATION</text>
  <text x="160" y="250" text-anchor="middle" font-family="Arial, Helvetica, sans-serif" font-size="42" font-weight="900" letter-spacing="1" fill="#050a5c">SPECIALIST</text>
</svg>
